<mxfile host="app.diagrams.net" modified="2021-07-12T03:56:31.011Z" agent="5.0 (Windows NT 10.0; Win64; x64) AppleWebKit/537.36 (KHTML, like Gecko) Chrome/91.0.4472.124 Safari/537.36" etag="05rihnTFPEE_5ElxvdhV" version="14.8.5" type="github">
  <diagram id="g-PtNnHFD2_0pPcHWypA" name="第 1 页">
    <mxGraphModel dx="958" dy="552" grid="1" gridSize="10" guides="1" tooltips="1" connect="1" arrows="1" fold="1" page="1" pageScale="1" pageWidth="827" pageHeight="1169" background="#182E3E" math="0" shadow="0">
      <root>
        <mxCell id="0" />
        <mxCell id="1" parent="0" />
        <mxCell id="RbGjA8E4n4S1d_bPEmI9-1" value="&lt;pre style=&quot;color: rgb(223 , 223 , 224) ; font-family: &amp;#34;cascadia code pl&amp;#34; , monospace ; font-size: 11px&quot;&gt;&lt;font style=&quot;font-size: 11px&quot;&gt;&lt;span style=&quot;color: rgb(73 , 176 , 206) ; font-size: 11px&quot;&gt;seckillUserService&lt;/span&gt;.&lt;span style=&quot;color: rgb(117 , 194 , 179) ; font-size: 11px&quot;&gt;login&lt;/span&gt;&lt;/font&gt;&lt;/pre&gt;&lt;pre style=&quot;color: rgb(223 , 223 , 224) ; font-family: &amp;#34;cascadia code pl&amp;#34; , monospace ; font-size: 11px&quot;&gt;&lt;font style=&quot;font-size: 11px&quot;&gt;&lt;span style=&quot;color: rgb(255 , 162 , 69) ; font-style: italic ; font-size: 11px&quot;&gt;(&lt;/span&gt;&lt;span style=&quot;color: rgb(252 , 252 , 252) ; font-size: 11px&quot;&gt;response&lt;/span&gt;, &lt;span style=&quot;color: rgb(252 , 252 , 252) ; font-size: 11px&quot;&gt;loginVo&lt;/span&gt;&lt;span style=&quot;color: rgb(255 , 162 , 69) ; font-style: italic ; font-size: 11px&quot;&gt;)&lt;/span&gt;;&lt;/font&gt;&lt;/pre&gt;" style="rounded=1;whiteSpace=wrap;html=1;sketch=0;glass=0;fontColor=#ffffff;fillColor=none;strokeColor=#FFFFFF;" vertex="1" parent="1">
          <mxGeometry y="37.5" width="170" height="60" as="geometry" />
        </mxCell>
        <mxCell id="RbGjA8E4n4S1d_bPEmI9-2" value="&lt;font color=&quot;#ffffff&quot; style=&quot;font-size: 14px&quot;&gt;login&lt;/font&gt;" style="text;html=1;align=center;verticalAlign=middle;resizable=0;points=[];autosize=1;fontFamily=Space Mono;fontSource=https%3A%2F%2Ffonts.googleapis.com%2Fcss%3Ffamily%3DSpace%2BMono;" vertex="1" parent="1">
          <mxGeometry x="55" y="20" width="60" height="20" as="geometry" />
        </mxCell>
        <mxCell id="RbGjA8E4n4S1d_bPEmI9-6" value="" style="shape=curlyBracket;whiteSpace=wrap;html=1;rounded=1;glass=0;sketch=0;fillColor=#FFFFFF;strokeColor=#FFFFFF;" vertex="1" parent="1">
          <mxGeometry x="170" y="14.690000000000001" width="40" height="105.62" as="geometry" />
        </mxCell>
        <mxCell id="RbGjA8E4n4S1d_bPEmI9-8" value="&lt;font color=&quot;#ffffff&quot; style=&quot;font-size: 12px&quot;&gt;1.判断手机号是否存在&lt;/font&gt;" style="text;html=1;align=center;verticalAlign=middle;resizable=0;points=[];autosize=1;strokeColor=none;" vertex="1" parent="1">
          <mxGeometry x="200" y="27.5" width="130" height="20" as="geometry" />
        </mxCell>
        <mxCell id="RbGjA8E4n4S1d_bPEmI9-13" value="&lt;font color=&quot;#ffffff&quot; style=&quot;font-size: 12px&quot;&gt;2.&lt;span&gt;判断手机号对应的密码是否一致&lt;/span&gt;&lt;/font&gt;" style="text;html=1;align=center;verticalAlign=middle;resizable=0;points=[];autosize=1;strokeColor=none;" vertex="1" parent="1">
          <mxGeometry x="200" y="57.5" width="190" height="20" as="geometry" />
        </mxCell>
        <mxCell id="RbGjA8E4n4S1d_bPEmI9-21" style="edgeStyle=orthogonalEdgeStyle;curved=0;rounded=1;sketch=0;orthogonalLoop=1;jettySize=auto;html=1;entryX=0;entryY=0.5;entryDx=0;entryDy=0;fontColor=#FFFFFF;strokeColor=#FFFFFF;" edge="1" parent="1" source="RbGjA8E4n4S1d_bPEmI9-14" target="RbGjA8E4n4S1d_bPEmI9-20">
          <mxGeometry relative="1" as="geometry" />
        </mxCell>
        <mxCell id="RbGjA8E4n4S1d_bPEmI9-14" value="&lt;pre style=&quot;font-size: 11px&quot;&gt;&lt;font color=&quot;#ffffff&quot; style=&quot;font-size: 12px&quot;&gt;3.登录成功，生成&lt;span style=&quot;font-family: &amp;#34;cascadia code pl&amp;#34; , monospace ; font-size: 11px&quot;&gt;cookie&lt;/span&gt;&lt;/font&gt;&lt;/pre&gt;" style="text;html=1;align=center;verticalAlign=middle;resizable=0;points=[];autosize=1;strokeColor=none;" vertex="1" parent="1">
          <mxGeometry x="200" y="77.5" width="150" height="40" as="geometry" />
        </mxCell>
        <mxCell id="RbGjA8E4n4S1d_bPEmI9-19" style="edgeStyle=orthogonalEdgeStyle;curved=0;rounded=1;sketch=0;orthogonalLoop=1;jettySize=auto;html=1;exitX=0;exitY=0.5;exitDx=0;exitDy=0;entryX=1.015;entryY=0.536;entryDx=0;entryDy=0;entryPerimeter=0;fontColor=#FFFFFF;strokeColor=#FFFFFF;" edge="1" parent="1" source="RbGjA8E4n4S1d_bPEmI9-18" target="RbGjA8E4n4S1d_bPEmI9-8">
          <mxGeometry relative="1" as="geometry" />
        </mxCell>
        <mxCell id="RbGjA8E4n4S1d_bPEmI9-18" value="&lt;font color=&quot;#ffffff&quot;&gt;通过缓存读取&lt;/font&gt;" style="rounded=1;whiteSpace=wrap;html=1;glass=0;sketch=0;strokeColor=#FFFFFF;fillColor=none;" vertex="1" parent="1">
          <mxGeometry x="480" y="22.5" width="85" height="30" as="geometry" />
        </mxCell>
        <mxCell id="RbGjA8E4n4S1d_bPEmI9-20" value="&lt;pre style=&quot;color: rgb(223 , 223 , 224) ; font-family: &amp;#34;cascadia code pl&amp;#34; , monospace ; font-size: 10px&quot;&gt;&lt;span style=&quot;color: rgb(73 , 176 , 206) ; font-size: 10px&quot;&gt;redisService&lt;/span&gt;.&lt;span style=&quot;color: rgb(117 , 194 , 179) ; font-size: 10px&quot;&gt;set&lt;/span&gt;&lt;span style=&quot;color: rgb(255 , 162 , 69) ; font-style: italic ; font-size: 10px&quot;&gt;(&lt;/span&gt;&lt;span style=&quot;color: rgb(130 , 230 , 255) ; font-size: 10px&quot;&gt;SeckillUserKeyPrefix&lt;/span&gt;.&lt;span style=&quot;color: rgb(73 , 176 , 206) ; font-style: italic ; font-size: 10px&quot;&gt;token&lt;/span&gt;, &lt;span style=&quot;color: rgb(252 , 252 , 252) ; font-size: 10px&quot;&gt;token&lt;/span&gt;, &lt;span style=&quot;color: rgb(252 , 252 , 252) ; font-size: 10px&quot;&gt;user&lt;/span&gt;&lt;span style=&quot;color: rgb(255 , 162 , 69) ; font-style: italic ; font-size: 10px&quot;&gt;)&lt;/span&gt;;&lt;span style=&quot;color: rgb(127 , 140 , 153) ; font-size: 10px&quot;&gt; &lt;/span&gt;&lt;span style=&quot;color: rgb(127 , 140 , 153) ; font-size: 10px&quot;&gt;&lt;br style=&quot;font-size: 10px&quot;&gt;&lt;/span&gt;&lt;span style=&quot;color: rgb(130 , 230 , 255) ; font-size: 10px&quot;&gt;Cookie &lt;/span&gt;&lt;span style=&quot;color: rgb(252 , 252 , 252) ; font-size: 10px&quot;&gt;cookie &lt;/span&gt;= &lt;span style=&quot;color: rgb(249 , 123 , 176) ; font-weight: bold ; font-size: 10px&quot;&gt;new &lt;/span&gt;&lt;span style=&quot;color: rgb(117 , 194 , 179) ; font-size: 10px&quot;&gt;Cookie&lt;/span&gt;&lt;span style=&quot;color: rgb(255 , 162 , 69) ; font-style: italic ; font-size: 10px&quot;&gt;(&lt;/span&gt;&lt;span style=&quot;color: rgb(73 , 176 , 206) ; font-style: italic ; font-size: 10px&quot;&gt;COOKIE_NAME_TOKEN&lt;/span&gt;, &lt;span style=&quot;color: rgb(252 , 252 , 252) ; font-size: 10px&quot;&gt;token&lt;/span&gt;&lt;span style=&quot;color: rgb(255 , 162 , 69) ; font-style: italic ; font-size: 10px&quot;&gt;)&lt;/span&gt;;&lt;/pre&gt;" style="rounded=1;whiteSpace=wrap;html=1;glass=0;sketch=0;strokeColor=#FFFFFF;fillColor=none;" vertex="1" parent="1">
          <mxGeometry x="480" y="77.5" width="430" height="40" as="geometry" />
        </mxCell>
      </root>
    </mxGraphModel>
  </diagram>
</mxfile>
